# MagicaVoxel @ Ephtracy

# group
o 

# material
mtllib corner.mtl
usemtl palette

# normals
vn -1 0 0
vn 1 0 0
vn 0 0 1
vn 0 0 -1
vn 0 -1 0
vn 0 1 0

# texcoords
vt 0.958984 0.5
vt 0.978516 0.5
vt 0.986328 0.5

# verts
v -0.7 0 0.7
v -0.7 0 -0.2
v -0.7 0.1 0.7
v -0.7 0.1 -0.2
v -0.6 0 -0.2
v -0.6 0 -0.4
v -0.6 0.1 -0.2
v -0.6 0.1 -0.4
v -0.5 0 -0.4
v -0.5 0 -0.5
v -0.5 0.1 -0.4
v -0.5 0.1 -0.5
v -0.3 0 -0.5
v -0.3 0 -0.6
v -0.3 0.1 -0.5
v -0.3 0.1 -0.6
v 0.6 0 0.7
v 0.6 0 0.5
v 0.6 0 0.1
v 0.6 0 0
v 0.6 0 -0.4
v 0.6 0 -0.6
v 0.6 0.1 0.7
v 0.6 0.1 0.5
v 0.6 0.1 0.1
v 0.6 0.1 0
v 0.6 0.1 -0.4
v 0.6 0.1 -0.6
v -0.7 0 0.7
v -0.7 0.1 0.7
v -0.5 0 0.7
v -0.5 0.1 0.7
v -0.1 0 0.7
v -0.1 0.1 0.7
v 0 0 0.7
v 0 0.1 0.7
v 0.4 0 0.7
v 0.4 0.1 0.7
v 0.6 0 0.7
v 0.6 0.1 0.7
v -0.7 0 -0.2
v -0.7 0.1 -0.2
v -0.6 0 -0.2
v -0.6 0.1 -0.2
v -0.6 0 -0.4
v -0.6 0.1 -0.4
v -0.5 0 -0.4
v -0.5 0.1 -0.4
v -0.5 0 -0.5
v -0.5 0.1 -0.5
v -0.3 0 -0.5
v -0.3 0.1 -0.5
v -0.3 0 -0.6
v -0.3 0.1 -0.6
v 0.6 0 -0.6
v 0.6 0.1 -0.6
v -0.7 0 0.7
v -0.5 0 0.7
v -0.1 0 0.7
v 0 0 0.7
v 0.4 0 0.7
v 0.6 0 0.7
v -0.1 0 0.6
v 0 0 0.6
v -0.1 0 0.5
v 0 0 0.5
v 0.4 0 0.5
v 0.6 0 0.5
v -0.1 0 0.3
v 0 0 0.3
v 0.1 0 0.1
v 0.3 0 0.1
v 0.4 0 0.1
v 0.6 0 0.1
v -0.5 0 0
v -0.4 0 0
v 0.1 0 0
v 0.3 0 0
v 0.4 0 0
v 0.6 0 0
v -0.7 0 -0.2
v -0.6 0 -0.2
v -0.4 0 -0.2
v -0.3 0 -0.2
v -0.3 0 -0.3
v -0.1 0 -0.3
v -0.6 0 -0.4
v -0.5 0 -0.4
v -0.1 0 -0.4
v 0.6 0 -0.4
v -0.5 0 -0.5
v -0.3 0 -0.5
v -0.3 0 -0.6
v 0.6 0 -0.6
v -0.7 0.1 0.7
v -0.5 0.1 0.7
v -0.1 0.1 0.7
v 0 0.1 0.7
v 0.4 0.1 0.7
v 0.6 0.1 0.7
v -0.1 0.1 0.6
v 0 0.1 0.6
v -0.1 0.1 0.5
v 0 0.1 0.5
v 0.4 0.1 0.5
v 0.6 0.1 0.5
v -0.1 0.1 0.3
v 0 0.1 0.3
v 0.1 0.1 0.1
v 0.3 0.1 0.1
v 0.4 0.1 0.1
v 0.6 0.1 0.1
v -0.5 0.1 0
v -0.4 0.1 0
v 0.1 0.1 0
v 0.3 0.1 0
v 0.4 0.1 0
v 0.6 0.1 0
v -0.7 0.1 -0.2
v -0.6 0.1 -0.2
v -0.4 0.1 -0.2
v -0.3 0.1 -0.2
v -0.3 0.1 -0.3
v -0.1 0.1 -0.3
v -0.6 0.1 -0.4
v -0.5 0.1 -0.4
v -0.1 0.1 -0.4
v 0.6 0.1 -0.4
v -0.5 0.1 -0.5
v -0.3 0.1 -0.5
v -0.3 0.1 -0.6
v 0.6 0.1 -0.6

# faces
f 3/2/1 2/2/1 1/2/1
f 4/2/1 2/2/1 3/2/1
f 7/2/1 6/2/1 5/2/1
f 8/2/1 6/2/1 7/2/1
f 11/2/1 10/2/1 9/2/1
f 12/2/1 10/2/1 11/2/1
f 15/2/1 14/2/1 13/2/1
f 16/2/1 14/2/1 15/2/1
f 17/2/2 18/2/2 23/2/2
f 18/3/2 19/3/2 24/3/2
f 23/2/2 18/2/2 24/2/2
f 19/1/2 20/1/2 25/1/2
f 24/3/2 19/3/2 25/3/2
f 20/3/2 21/3/2 26/3/2
f 25/1/2 20/1/2 26/1/2
f 21/2/2 22/2/2 27/2/2
f 26/3/2 21/3/2 27/3/2
f 27/2/2 22/2/2 28/2/2
f 31/2/3 30/2/3 29/2/3
f 32/2/3 30/2/3 31/2/3
f 33/3/3 32/3/3 31/3/3
f 34/3/3 32/3/3 33/3/3
f 35/1/3 34/1/3 33/1/3
f 36/1/3 34/1/3 35/1/3
f 37/3/3 36/3/3 35/3/3
f 38/3/3 36/3/3 37/3/3
f 39/2/3 38/2/3 37/2/3
f 40/2/3 38/2/3 39/2/3
f 41/2/4 42/2/4 43/2/4
f 43/2/4 42/2/4 44/2/4
f 45/2/4 46/2/4 47/2/4
f 47/2/4 46/2/4 48/2/4
f 49/2/4 50/2/4 51/2/4
f 51/2/4 50/2/4 52/2/4
f 53/2/4 54/2/4 55/2/4
f 55/2/4 54/2/4 56/2/4
f 63/3/5 59/3/5 58/3/5
f 63/1/5 60/1/5 59/1/5
f 64/3/5 61/3/5 60/3/5
f 64/1/5 60/1/5 63/1/5
f 65/3/5 63/3/5 58/3/5
f 65/3/5 64/3/5 63/3/5
f 66/3/5 61/3/5 64/3/5
f 66/3/5 64/3/5 65/3/5
f 67/2/5 62/2/5 61/2/5
f 67/3/5 61/3/5 66/3/5
f 68/2/5 62/2/5 67/2/5
f 69/1/5 66/1/5 65/1/5
f 69/3/5 65/3/5 58/3/5
f 70/3/5 68/3/5 67/3/5
f 70/1/5 66/1/5 69/1/5
f 70/3/5 67/3/5 66/3/5
f 71/3/5 70/3/5 69/3/5
f 71/3/5 68/3/5 70/3/5
f 72/3/5 68/3/5 71/3/5
f 73/3/5 68/3/5 72/3/5
f 74/3/5 68/3/5 73/3/5
f 75/2/5 58/2/5 57/2/5
f 75/3/5 69/3/5 58/3/5
f 75/3/5 71/3/5 69/3/5
f 76/3/5 71/3/5 75/3/5
f 77/1/5 72/1/5 71/1/5
f 77/3/5 71/3/5 76/3/5
f 78/3/5 73/3/5 72/3/5
f 78/1/5 72/1/5 77/1/5
f 79/1/5 74/1/5 73/1/5
f 79/3/5 73/3/5 78/3/5
f 80/1/5 74/1/5 79/1/5
f 81/2/5 76/2/5 75/2/5
f 81/2/5 75/2/5 57/2/5
f 82/2/5 76/2/5 81/2/5
f 83/3/5 78/3/5 77/3/5
f 83/2/5 76/2/5 82/2/5
f 83/3/5 77/3/5 76/3/5
f 83/3/5 80/3/5 79/3/5
f 83/3/5 79/3/5 78/3/5
f 84/3/5 80/3/5 83/3/5
f 85/3/5 80/3/5 84/3/5
f 85/2/5 84/2/5 83/2/5
f 85/2/5 83/2/5 82/2/5
f 86/3/5 80/3/5 85/3/5
f 87/2/5 85/2/5 82/2/5
f 87/2/5 86/2/5 85/2/5
f 88/2/5 86/2/5 87/2/5
f 89/3/5 80/3/5 86/3/5
f 89/2/5 86/2/5 88/2/5
f 90/3/5 80/3/5 89/3/5
f 91/2/5 89/2/5 88/2/5
f 91/2/5 90/2/5 89/2/5
f 92/2/5 90/2/5 91/2/5
f 93/2/5 90/2/5 92/2/5
f 94/2/5 90/2/5 93/2/5
f 96/3/6 97/3/6 101/3/6
f 97/1/6 98/1/6 101/1/6
f 98/3/6 99/3/6 102/3/6
f 101/1/6 98/1/6 102/1/6
f 96/3/6 101/3/6 103/3/6
f 101/3/6 102/3/6 103/3/6
f 102/3/6 99/3/6 104/3/6
f 103/3/6 102/3/6 104/3/6
f 99/2/6 100/2/6 105/2/6
f 104/3/6 99/3/6 105/3/6
f 105/2/6 100/2/6 106/2/6
f 103/1/6 104/1/6 107/1/6
f 96/3/6 103/3/6 107/3/6
f 105/3/6 106/3/6 108/3/6
f 107/1/6 104/1/6 108/1/6
f 104/3/6 105/3/6 108/3/6
f 107/3/6 108/3/6 109/3/6
f 108/3/6 106/3/6 109/3/6
f 109/3/6 106/3/6 110/3/6
f 110/3/6 106/3/6 111/3/6
f 111/3/6 106/3/6 112/3/6
f 95/2/6 96/2/6 113/2/6
f 96/3/6 107/3/6 113/3/6
f 107/3/6 109/3/6 113/3/6
f 113/3/6 109/3/6 114/3/6
f 109/1/6 110/1/6 115/1/6
f 114/3/6 109/3/6 115/3/6
f 110/3/6 111/3/6 116/3/6
f 115/1/6 110/1/6 116/1/6
f 111/1/6 112/1/6 117/1/6
f 116/3/6 111/3/6 117/3/6
f 117/1/6 112/1/6 118/1/6
f 113/2/6 114/2/6 119/2/6
f 95/2/6 113/2/6 119/2/6
f 119/2/6 114/2/6 120/2/6
f 115/3/6 116/3/6 121/3/6
f 120/2/6 114/2/6 121/2/6
f 114/3/6 115/3/6 121/3/6
f 117/3/6 118/3/6 121/3/6
f 116/3/6 117/3/6 121/3/6
f 121/3/6 118/3/6 122/3/6
f 122/3/6 118/3/6 123/3/6
f 121/2/6 122/2/6 123/2/6
f 120/2/6 121/2/6 123/2/6
f 123/3/6 118/3/6 124/3/6
f 120/2/6 123/2/6 125/2/6
f 123/2/6 124/2/6 125/2/6
f 125/2/6 124/2/6 126/2/6
f 124/3/6 118/3/6 127/3/6
f 126/2/6 124/2/6 127/2/6
f 127/3/6 118/3/6 128/3/6
f 126/2/6 127/2/6 129/2/6
f 127/2/6 128/2/6 129/2/6
f 129/2/6 128/2/6 130/2/6
f 130/2/6 128/2/6 131/2/6
f 131/2/6 128/2/6 132/2/6
