# MagicaVoxel @ Ephtracy

# group
o 

# material
mtllib end.mtl
usemtl palette

# normals
vn 0 0 1
vn 0 0 -1
vn 1 0 0
vn -1 0 0
vn 0 -1 0
vn 0 1 0

# texcoords
vt 0.958984 0.5
vt 0.978516 0.5
vt 0.986328 0.5

# verts
v 1.3 0 1.3
v -1.3 0 1.3
v 1.3 0.2 1.3
v -1.3 0.2 1.3
v 1.3 0 -1.3
v -1.3 0 -1.3
v 1.3 0.2 -1.3
v -1.3 0.2 -1.3
v 1.3 0 1.3
v 1.3 0.2 1.3
v 1.3 0 -1.3
v 1.3 0.2 -1.3
v -1.3 0 1.3
v -1.3 0.2 1.3
v -1.3 0 0.9
v -1.3 0.2 0.9
v -1.3 0 0.1
v -1.3 0.2 0.1
v -1.3 0 -0.0999999
v -1.3 0.2 -0.0999999
v -1.3 0 -0.9
v -1.3 0.2 -0.9
v -1.3 0 -1.3
v -1.3 0.2 -1.3
v 1.3 0 1.3
v 1.3 0 -1.3
v 0.9 0 0.9
v 0.9 0 0.1
v 0.9 0 -0.0999999
v 0.9 0 -0.9
v 0.5 0 0.1
v 0.5 0 -0.0999999
v 0.3 0 0.1
v 0.3 0 -0.0999999
v -0.0999999 0 0.1
v -0.0999999 0 -0.0999999
v -0.3 0 0.1
v -0.3 0 -0.0999999
v -0.7 0 0.1
v -0.7 0 -0.0999999
v -0.9 0 0.1
v -0.9 0 -0.0999999
v -1.3 0 1.3
v -1.3 0 0.9
v -1.3 0 0.1
v -1.3 0 -0.0999999
v -1.3 0 -0.9
v -1.3 0 -1.3
v 1.3 0.2 1.3
v 1.3 0.2 -1.3
v 0.9 0.2 0.9
v 0.9 0.2 0.1
v 0.9 0.2 -0.0999999
v 0.9 0.2 -0.9
v 0.5 0.2 0.1
v 0.5 0.2 -0.0999999
v 0.3 0.2 0.1
v 0.3 0.2 -0.0999999
v -0.0999999 0.2 0.1
v -0.0999999 0.2 -0.0999999
v -0.3 0.2 0.1
v -0.3 0.2 -0.0999999
v -0.7 0.2 0.1
v -0.7 0.2 -0.0999999
v -0.9 0.2 0.1
v -0.9 0.2 -0.0999999
v -1.3 0.2 1.3
v -1.3 0.2 0.9
v -1.3 0.2 0.1
v -1.3 0.2 -0.0999999
v -1.3 0.2 -0.9
v -1.3 0.2 -1.3

# faces
f 3/2/1 2/2/1 1/2/1
f 4/2/1 2/2/1 3/2/1
f 5/2/2 6/2/2 7/2/2
f 7/2/2 6/2/2 8/2/2
f 11/2/3 10/2/3 9/2/3
f 12/2/3 10/2/3 11/2/3
f 13/2/4 14/2/4 15/2/4
f 15/2/4 14/2/4 16/2/4
f 15/3/4 16/3/4 17/3/4
f 17/3/4 16/3/4 18/3/4
f 17/1/4 18/1/4 19/1/4
f 19/1/4 18/1/4 20/1/4
f 19/3/4 20/3/4 21/3/4
f 21/3/4 20/3/4 22/3/4
f 21/2/4 22/2/4 23/2/4
f 23/2/4 22/2/4 24/2/4
f 27/2/5 26/2/5 25/2/5
f 28/2/5 26/2/5 27/2/5
f 29/2/5 26/2/5 28/2/5
f 30/2/5 26/2/5 29/2/5
f 31/3/5 28/3/5 27/3/5
f 31/1/5 29/1/5 28/1/5
f 32/3/5 30/3/5 29/3/5
f 32/1/5 29/1/5 31/1/5
f 33/3/5 31/3/5 27/3/5
f 33/3/5 32/3/5 31/3/5
f 34/3/5 30/3/5 32/3/5
f 34/3/5 32/3/5 33/3/5
f 35/3/5 33/3/5 27/3/5
f 35/1/5 34/1/5 33/1/5
f 36/3/5 30/3/5 34/3/5
f 36/1/5 34/1/5 35/1/5
f 37/3/5 35/3/5 27/3/5
f 37/3/5 36/3/5 35/3/5
f 38/3/5 30/3/5 36/3/5
f 38/3/5 36/3/5 37/3/5
f 39/3/5 37/3/5 27/3/5
f 39/1/5 38/1/5 37/1/5
f 40/3/5 30/3/5 38/3/5
f 40/1/5 38/1/5 39/1/5
f 41/3/5 39/3/5 27/3/5
f 41/3/5 40/3/5 39/3/5
f 42/3/5 30/3/5 40/3/5
f 42/3/5 40/3/5 41/3/5
f 43/2/5 27/2/5 25/2/5
f 44/3/5 41/3/5 27/3/5
f 44/2/5 27/2/5 43/2/5
f 45/1/5 42/1/5 41/1/5
f 45/3/5 41/3/5 44/3/5
f 46/3/5 30/3/5 42/3/5
f 46/1/5 42/1/5 45/1/5
f 47/2/5 26/2/5 30/2/5
f 47/3/5 30/3/5 46/3/5
f 48/2/5 26/2/5 47/2/5
f 49/2/6 50/2/6 51/2/6
f 51/2/6 50/2/6 52/2/6
f 52/2/6 50/2/6 53/2/6
f 53/2/6 50/2/6 54/2/6
f 51/3/6 52/3/6 55/3/6
f 52/1/6 53/1/6 55/1/6
f 53/3/6 54/3/6 56/3/6
f 55/1/6 53/1/6 56/1/6
f 51/3/6 55/3/6 57/3/6
f 55/3/6 56/3/6 57/3/6
f 56/3/6 54/3/6 58/3/6
f 57/3/6 56/3/6 58/3/6
f 51/3/6 57/3/6 59/3/6
f 57/1/6 58/1/6 59/1/6
f 58/3/6 54/3/6 60/3/6
f 59/1/6 58/1/6 60/1/6
f 51/3/6 59/3/6 61/3/6
f 59/3/6 60/3/6 61/3/6
f 60/3/6 54/3/6 62/3/6
f 61/3/6 60/3/6 62/3/6
f 51/3/6 61/3/6 63/3/6
f 61/1/6 62/1/6 63/1/6
f 62/3/6 54/3/6 64/3/6
f 63/1/6 62/1/6 64/1/6
f 51/3/6 63/3/6 65/3/6
f 63/3/6 64/3/6 65/3/6
f 64/3/6 54/3/6 66/3/6
f 65/3/6 64/3/6 66/3/6
f 49/2/6 51/2/6 67/2/6
f 51/3/6 65/3/6 68/3/6
f 67/2/6 51/2/6 68/2/6
f 65/1/6 66/1/6 69/1/6
f 68/3/6 65/3/6 69/3/6
f 66/3/6 54/3/6 70/3/6
f 69/1/6 66/1/6 70/1/6
f 54/2/6 50/2/6 71/2/6
f 70/3/6 54/3/6 71/3/6
f 71/2/6 50/2/6 72/2/6
