# MagicaVoxel @ Ephtracy

# group
o 

# material
mtllib inersect4.mtl
usemtl palette

# normals
vn 0 0 1
vn 0 0 -1
vn 1 0 0
vn -1 0 0
vn 0 -1 0
vn 0 1 0

# texcoords
vt 0.958984 0.5
vt 0.978516 0.5
vt 0.986328 0.5

# verts
v 1.3 0 1.3
v 0.9 0 1.3
v 0.7 0 1.3
v 0.5 0 1.3
v 0.3 0 1.3
v 0.1 0 1.3
v -0.0999999 0 1.3
v -0.3 0 1.3
v -0.5 0 1.3
v -0.7 0 1.3
v -0.9 0 1.3
v -1.3 0 1.3
v 1.3 0.2 1.3
v 0.9 0.2 1.3
v 0.7 0.2 1.3
v 0.5 0.2 1.3
v 0.3 0.2 1.3
v 0.1 0.2 1.3
v -0.0999999 0.2 1.3
v -0.3 0.2 1.3
v -0.5 0.2 1.3
v -0.7 0.2 1.3
v -0.9 0.2 1.3
v -1.3 0.2 1.3
v 1.3 0 -1.3
v 0.9 0 -1.3
v 0.7 0 -1.3
v 0.5 0 -1.3
v 0.3 0 -1.3
v 0.1 0 -1.3
v -0.0999999 0 -1.3
v -0.3 0 -1.3
v -0.5 0 -1.3
v -0.7 0 -1.3
v -0.9 0 -1.3
v -1.3 0 -1.3
v 1.3 0.2 -1.3
v 0.9 0.2 -1.3
v 0.7 0.2 -1.3
v 0.5 0.2 -1.3
v 0.3 0.2 -1.3
v 0.1 0.2 -1.3
v -0.0999999 0.2 -1.3
v -0.3 0.2 -1.3
v -0.5 0.2 -1.3
v -0.7 0.2 -1.3
v -0.9 0.2 -1.3
v -1.3 0.2 -1.3
v 1.3 0 1.3
v 1.3 0.2 1.3
v 1.3 0 0.9
v 1.3 0.2 0.9
v 1.3 0 0.7
v 1.3 0.2 0.7
v 1.3 0 0.5
v 1.3 0.2 0.5
v 1.3 0 0.3
v 1.3 0.2 0.3
v 1.3 0 0.1
v 1.3 0.2 0.1
v 1.3 0 -0.0999999
v 1.3 0.2 -0.0999999
v 1.3 0 -0.3
v 1.3 0.2 -0.3
v 1.3 0 -0.5
v 1.3 0.2 -0.5
v 1.3 0 -0.7
v 1.3 0.2 -0.7
v 1.3 0 -0.9
v 1.3 0.2 -0.9
v 1.3 0 -1.3
v 1.3 0.2 -1.3
v -1.3 0 1.3
v -1.3 0.2 1.3
v -1.3 0 0.9
v -1.3 0.2 0.9
v -1.3 0 0.7
v -1.3 0.2 0.7
v -1.3 0 0.5
v -1.3 0.2 0.5
v -1.3 0 0.3
v -1.3 0.2 0.3
v -1.3 0 0.1
v -1.3 0.2 0.1
v -1.3 0 -0.0999999
v -1.3 0.2 -0.0999999
v -1.3 0 -0.3
v -1.3 0.2 -0.3
v -1.3 0 -0.5
v -1.3 0.2 -0.5
v -1.3 0 -0.7
v -1.3 0.2 -0.7
v -1.3 0 -0.9
v -1.3 0.2 -0.9
v -1.3 0 -1.3
v -1.3 0.2 -1.3
v 1.3 0 1.3
v 1.3 0 0.9
v 1.3 0 0.7
v 1.3 0 0.5
v 1.3 0 0.3
v 1.3 0 0.1
v 1.3 0 -0.0999999
v 1.3 0 -0.3
v 1.3 0 -0.5
v 1.3 0 -0.7
v 1.3 0 -0.9
v 1.3 0 -1.3
v 0.9 0 1.3
v 0.9 0 0.9
v 0.9 0 0.7
v 0.9 0 0.5
v 0.9 0 0.3
v 0.9 0 0.1
v 0.9 0 -0.0999999
v 0.9 0 -0.3
v 0.9 0 -0.5
v 0.9 0 -0.7
v 0.9 0 -0.9
v 0.9 0 -1.3
v 0.7 0 1.3
v 0.7 0 0.9
v 0.7 0 -0.9
v 0.7 0 -1.3
v 0.5 0 1.3
v 0.5 0 0.9
v 0.5 0 -0.9
v 0.5 0 -1.3
v 0.3 0 1.3
v 0.3 0 0.9
v 0.3 0 -0.9
v 0.3 0 -1.3
v 0.1 0 1.3
v 0.1 0 0.9
v 0.1 0 -0.9
v 0.1 0 -1.3
v -0.0999999 0 1.3
v -0.0999999 0 0.9
v -0.0999999 0 -0.9
v -0.0999999 0 -1.3
v -0.3 0 1.3
v -0.3 0 0.9
v -0.3 0 -0.9
v -0.3 0 -1.3
v -0.5 0 1.3
v -0.5 0 0.9
v -0.5 0 -0.9
v -0.5 0 -1.3
v -0.7 0 1.3
v -0.7 0 0.9
v -0.7 0 -0.9
v -0.7 0 -1.3
v -0.9 0 1.3
v -0.9 0 0.9
v -0.9 0 0.7
v -0.9 0 0.5
v -0.9 0 0.3
v -0.9 0 0.1
v -0.9 0 -0.0999999
v -0.9 0 -0.3
v -0.9 0 -0.5
v -0.9 0 -0.7
v -0.9 0 -0.9
v -0.9 0 -1.3
v -1.3 0 1.3
v -1.3 0 0.9
v -1.3 0 0.7
v -1.3 0 0.5
v -1.3 0 0.3
v -1.3 0 0.1
v -1.3 0 -0.0999999
v -1.3 0 -0.3
v -1.3 0 -0.5
v -1.3 0 -0.7
v -1.3 0 -0.9
v -1.3 0 -1.3
v 1.3 0.2 1.3
v 1.3 0.2 0.9
v 1.3 0.2 0.7
v 1.3 0.2 0.5
v 1.3 0.2 0.3
v 1.3 0.2 0.1
v 1.3 0.2 -0.0999999
v 1.3 0.2 -0.3
v 1.3 0.2 -0.5
v 1.3 0.2 -0.7
v 1.3 0.2 -0.9
v 1.3 0.2 -1.3
v 0.9 0.2 1.3
v 0.9 0.2 0.9
v 0.9 0.2 0.7
v 0.9 0.2 0.5
v 0.9 0.2 0.3
v 0.9 0.2 0.1
v 0.9 0.2 -0.0999999
v 0.9 0.2 -0.3
v 0.9 0.2 -0.5
v 0.9 0.2 -0.7
v 0.9 0.2 -0.9
v 0.9 0.2 -1.3
v 0.7 0.2 1.3
v 0.7 0.2 0.9
v 0.7 0.2 -0.9
v 0.7 0.2 -1.3
v 0.5 0.2 1.3
v 0.5 0.2 0.9
v 0.5 0.2 -0.9
v 0.5 0.2 -1.3
v 0.3 0.2 1.3
v 0.3 0.2 0.9
v 0.3 0.2 -0.9
v 0.3 0.2 -1.3
v 0.1 0.2 1.3
v 0.1 0.2 0.9
v 0.1 0.2 -0.9
v 0.1 0.2 -1.3
v -0.0999999 0.2 1.3
v -0.0999999 0.2 0.9
v -0.0999999 0.2 -0.9
v -0.0999999 0.2 -1.3
v -0.3 0.2 1.3
v -0.3 0.2 0.9
v -0.3 0.2 -0.9
v -0.3 0.2 -1.3
v -0.5 0.2 1.3
v -0.5 0.2 0.9
v -0.5 0.2 -0.9
v -0.5 0.2 -1.3
v -0.7 0.2 1.3
v -0.7 0.2 0.9
v -0.7 0.2 -0.9
v -0.7 0.2 -1.3
v -0.9 0.2 1.3
v -0.9 0.2 0.9
v -0.9 0.2 0.7
v -0.9 0.2 0.5
v -0.9 0.2 0.3
v -0.9 0.2 0.1
v -0.9 0.2 -0.0999999
v -0.9 0.2 -0.3
v -0.9 0.2 -0.5
v -0.9 0.2 -0.7
v -0.9 0.2 -0.9
v -0.9 0.2 -1.3
v -1.3 0.2 1.3
v -1.3 0.2 0.9
v -1.3 0.2 0.7
v -1.3 0.2 0.5
v -1.3 0.2 0.3
v -1.3 0.2 0.1
v -1.3 0.2 -0.0999999
v -1.3 0.2 -0.3
v -1.3 0.2 -0.5
v -1.3 0.2 -0.7
v -1.3 0.2 -0.9
v -1.3 0.2 -1.3

# faces
f 13/2/1 2/2/1 1/2/1
f 14/1/1 3/1/1 2/1/1
f 14/2/1 2/2/1 13/2/1
f 15/3/1 4/3/1 3/3/1
f 15/1/1 3/1/1 14/1/1
f 16/1/1 5/1/1 4/1/1
f 16/3/1 4/3/1 15/3/1
f 17/3/1 6/3/1 5/3/1
f 17/1/1 5/1/1 16/1/1
f 18/1/1 7/1/1 6/1/1
f 18/3/1 6/3/1 17/3/1
f 19/3/1 8/3/1 7/3/1
f 19/1/1 7/1/1 18/1/1
f 20/1/1 9/1/1 8/1/1
f 20/3/1 8/3/1 19/3/1
f 21/3/1 10/3/1 9/3/1
f 21/1/1 9/1/1 20/1/1
f 22/1/1 11/1/1 10/1/1
f 22/3/1 10/3/1 21/3/1
f 23/2/1 12/2/1 11/2/1
f 23/1/1 11/1/1 22/1/1
f 24/2/1 12/2/1 23/2/1
f 25/2/2 26/2/2 37/2/2
f 26/1/2 27/1/2 38/1/2
f 37/2/2 26/2/2 38/2/2
f 27/3/2 28/3/2 39/3/2
f 38/1/2 27/1/2 39/1/2
f 28/1/2 29/1/2 40/1/2
f 39/3/2 28/3/2 40/3/2
f 29/3/2 30/3/2 41/3/2
f 40/1/2 29/1/2 41/1/2
f 30/1/2 31/1/2 42/1/2
f 41/3/2 30/3/2 42/3/2
f 31/3/2 32/3/2 43/3/2
f 42/1/2 31/1/2 43/1/2
f 32/1/2 33/1/2 44/1/2
f 43/3/2 32/3/2 44/3/2
f 33/3/2 34/3/2 45/3/2
f 44/1/2 33/1/2 45/1/2
f 34/1/2 35/1/2 46/1/2
f 45/3/2 34/3/2 46/3/2
f 35/2/2 36/2/2 47/2/2
f 46/1/2 35/1/2 47/1/2
f 47/2/2 36/2/2 48/2/2
f 51/2/3 50/2/3 49/2/3
f 52/2/3 50/2/3 51/2/3
f 53/1/3 52/1/3 51/1/3
f 54/1/3 52/1/3 53/1/3
f 55/3/3 54/3/3 53/3/3
f 56/3/3 54/3/3 55/3/3
f 57/1/3 56/1/3 55/1/3
f 58/1/3 56/1/3 57/1/3
f 59/3/3 58/3/3 57/3/3
f 60/3/3 58/3/3 59/3/3
f 61/1/3 60/1/3 59/1/3
f 62/1/3 60/1/3 61/1/3
f 63/3/3 62/3/3 61/3/3
f 64/3/3 62/3/3 63/3/3
f 65/1/3 64/1/3 63/1/3
f 66/1/3 64/1/3 65/1/3
f 67/3/3 66/3/3 65/3/3
f 68/3/3 66/3/3 67/3/3
f 69/1/3 68/1/3 67/1/3
f 70/1/3 68/1/3 69/1/3
f 71/2/3 70/2/3 69/2/3
f 72/2/3 70/2/3 71/2/3
f 73/2/4 74/2/4 75/2/4
f 75/2/4 74/2/4 76/2/4
f 75/1/4 76/1/4 77/1/4
f 77/1/4 76/1/4 78/1/4
f 77/3/4 78/3/4 79/3/4
f 79/3/4 78/3/4 80/3/4
f 79/1/4 80/1/4 81/1/4
f 81/1/4 80/1/4 82/1/4
f 81/3/4 82/3/4 83/3/4
f 83/3/4 82/3/4 84/3/4
f 83/1/4 84/1/4 85/1/4
f 85/1/4 84/1/4 86/1/4
f 85/3/4 86/3/4 87/3/4
f 87/3/4 86/3/4 88/3/4
f 87/1/4 88/1/4 89/1/4
f 89/1/4 88/1/4 90/1/4
f 89/3/4 90/3/4 91/3/4
f 91/3/4 90/3/4 92/3/4
f 91/1/4 92/1/4 93/1/4
f 93/1/4 92/1/4 94/1/4
f 93/2/4 94/2/4 95/2/4
f 95/2/4 94/2/4 96/2/4
f 109/2/5 98/2/5 97/2/5
f 110/1/5 99/1/5 98/1/5
f 110/2/5 98/2/5 109/2/5
f 111/3/5 100/3/5 99/3/5
f 111/1/5 99/1/5 110/1/5
f 112/1/5 101/1/5 100/1/5
f 112/3/5 100/3/5 111/3/5
f 113/3/5 102/3/5 101/3/5
f 113/1/5 101/1/5 112/1/5
f 114/1/5 103/1/5 102/1/5
f 114/3/5 102/3/5 113/3/5
f 115/3/5 104/3/5 103/3/5
f 115/1/5 103/1/5 114/1/5
f 116/1/5 105/1/5 104/1/5
f 116/3/5 104/3/5 115/3/5
f 117/3/5 106/3/5 105/3/5
f 117/1/5 105/1/5 116/1/5
f 118/1/5 107/1/5 106/1/5
f 118/3/5 106/3/5 117/3/5
f 119/2/5 108/2/5 107/2/5
f 119/1/5 107/1/5 118/1/5
f 120/2/5 108/2/5 119/2/5
f 121/1/5 110/1/5 109/1/5
f 122/3/5 118/3/5 117/3/5
f 122/1/5 110/1/5 121/1/5
f 122/3/5 111/3/5 110/3/5
f 122/3/5 112/3/5 111/3/5
f 122/3/5 119/3/5 118/3/5
f 122/3/5 117/3/5 116/3/5
f 122/3/5 116/3/5 115/3/5
f 122/3/5 115/3/5 114/3/5
f 122/3/5 114/3/5 113/3/5
f 122/3/5 113/3/5 112/3/5
f 123/1/5 120/1/5 119/1/5
f 123/3/5 119/3/5 122/3/5
f 124/1/5 120/1/5 123/1/5
f 125/3/5 122/3/5 121/3/5
f 125/3/5 123/3/5 122/3/5
f 125/3/5 124/3/5 123/3/5
f 126/3/5 124/3/5 125/3/5
f 127/3/5 124/3/5 126/3/5
f 128/3/5 124/3/5 127/3/5
f 129/1/5 126/1/5 125/1/5
f 130/3/5 127/3/5 126/3/5
f 130/1/5 126/1/5 129/1/5
f 131/1/5 128/1/5 127/1/5
f 131/3/5 127/3/5 130/3/5
f 132/1/5 128/1/5 131/1/5
f 133/3/5 130/3/5 129/3/5
f 133/3/5 131/3/5 130/3/5
f 133/3/5 132/3/5 131/3/5
f 134/3/5 132/3/5 133/3/5
f 135/3/5 132/3/5 134/3/5
f 136/3/5 132/3/5 135/3/5
f 137/1/5 134/1/5 133/1/5
f 138/3/5 135/3/5 134/3/5
f 138/1/5 134/1/5 137/1/5
f 139/1/5 136/1/5 135/1/5
f 139/3/5 135/3/5 138/3/5
f 140/1/5 136/1/5 139/1/5
f 141/3/5 138/3/5 137/3/5
f 141/3/5 139/3/5 138/3/5
f 141/3/5 140/3/5 139/3/5
f 142/3/5 140/3/5 141/3/5
f 143/3/5 140/3/5 142/3/5
f 144/3/5 140/3/5 143/3/5
f 145/1/5 142/1/5 141/1/5
f 146/3/5 143/3/5 142/3/5
f 146/1/5 142/1/5 145/1/5
f 147/1/5 144/1/5 143/1/5
f 147/3/5 143/3/5 146/3/5
f 148/1/5 144/1/5 147/1/5
f 149/3/5 146/3/5 145/3/5
f 149/3/5 147/3/5 146/3/5
f 149/3/5 148/3/5 147/3/5
f 150/3/5 148/3/5 149/3/5
f 151/3/5 148/3/5 150/3/5
f 152/3/5 148/3/5 151/3/5
f 153/1/5 150/1/5 149/1/5
f 154/3/5 151/3/5 150/3/5
f 154/1/5 150/1/5 153/1/5
f 155/3/5 151/3/5 154/3/5
f 156/3/5 151/3/5 155/3/5
f 157/3/5 151/3/5 156/3/5
f 158/3/5 151/3/5 157/3/5
f 159/3/5 151/3/5 158/3/5
f 160/3/5 151/3/5 159/3/5
f 161/3/5 151/3/5 160/3/5
f 162/3/5 151/3/5 161/3/5
f 163/1/5 152/1/5 151/1/5
f 163/3/5 151/3/5 162/3/5
f 164/1/5 152/1/5 163/1/5
f 165/2/5 154/2/5 153/2/5
f 166/1/5 155/1/5 154/1/5
f 166/2/5 154/2/5 165/2/5
f 167/3/5 156/3/5 155/3/5
f 167/1/5 155/1/5 166/1/5
f 168/1/5 157/1/5 156/1/5
f 168/3/5 156/3/5 167/3/5
f 169/3/5 158/3/5 157/3/5
f 169/1/5 157/1/5 168/1/5
f 170/1/5 159/1/5 158/1/5
f 170/3/5 158/3/5 169/3/5
f 171/3/5 160/3/5 159/3/5
f 171/1/5 159/1/5 170/1/5
f 172/1/5 161/1/5 160/1/5
f 172/3/5 160/3/5 171/3/5
f 173/3/5 162/3/5 161/3/5
f 173/1/5 161/1/5 172/1/5
f 174/1/5 163/1/5 162/1/5
f 174/3/5 162/3/5 173/3/5
f 175/2/5 164/2/5 163/2/5
f 175/1/5 163/1/5 174/1/5
f 176/2/5 164/2/5 175/2/5
f 177/2/6 178/2/6 189/2/6
f 178/1/6 179/1/6 190/1/6
f 189/2/6 178/2/6 190/2/6
f 179/3/6 180/3/6 191/3/6
f 190/1/6 179/1/6 191/1/6
f 180/1/6 181/1/6 192/1/6
f 191/3/6 180/3/6 192/3/6
f 181/3/6 182/3/6 193/3/6
f 192/1/6 181/1/6 193/1/6
f 182/1/6 183/1/6 194/1/6
f 193/3/6 182/3/6 194/3/6
f 183/3/6 184/3/6 195/3/6
f 194/1/6 183/1/6 195/1/6
f 184/1/6 185/1/6 196/1/6
f 195/3/6 184/3/6 196/3/6
f 185/3/6 186/3/6 197/3/6
f 196/1/6 185/1/6 197/1/6
f 186/1/6 187/1/6 198/1/6
f 197/3/6 186/3/6 198/3/6
f 187/2/6 188/2/6 199/2/6
f 198/1/6 187/1/6 199/1/6
f 199/2/6 188/2/6 200/2/6
f 189/1/6 190/1/6 201/1/6
f 197/3/6 198/3/6 202/3/6
f 201/1/6 190/1/6 202/1/6
f 190/3/6 191/3/6 202/3/6
f 191/3/6 192/3/6 202/3/6
f 198/3/6 199/3/6 202/3/6
f 196/3/6 197/3/6 202/3/6
f 195/3/6 196/3/6 202/3/6
f 194/3/6 195/3/6 202/3/6
f 193/3/6 194/3/6 202/3/6
f 192/3/6 193/3/6 202/3/6
f 199/1/6 200/1/6 203/1/6
f 202/3/6 199/3/6 203/3/6
f 203/1/6 200/1/6 204/1/6
f 201/3/6 202/3/6 205/3/6
f 202/3/6 203/3/6 205/3/6
f 203/3/6 204/3/6 205/3/6
f 205/3/6 204/3/6 206/3/6
f 206/3/6 204/3/6 207/3/6
f 207/3/6 204/3/6 208/3/6
f 205/1/6 206/1/6 209/1/6
f 206/3/6 207/3/6 210/3/6
f 209/1/6 206/1/6 210/1/6
f 207/1/6 208/1/6 211/1/6
f 210/3/6 207/3/6 211/3/6
f 211/1/6 208/1/6 212/1/6
f 209/3/6 210/3/6 213/3/6
f 210/3/6 211/3/6 213/3/6
f 211/3/6 212/3/6 213/3/6
f 213/3/6 212/3/6 214/3/6
f 214/3/6 212/3/6 215/3/6
f 215/3/6 212/3/6 216/3/6
f 213/1/6 214/1/6 217/1/6
f 214/3/6 215/3/6 218/3/6
f 217/1/6 214/1/6 218/1/6
f 215/1/6 216/1/6 219/1/6
f 218/3/6 215/3/6 219/3/6
f 219/1/6 216/1/6 220/1/6
f 217/3/6 218/3/6 221/3/6
f 218/3/6 219/3/6 221/3/6
f 219/3/6 220/3/6 221/3/6
f 221/3/6 220/3/6 222/3/6
f 222/3/6 220/3/6 223/3/6
f 223/3/6 220/3/6 224/3/6
f 221/1/6 222/1/6 225/1/6
f 222/3/6 223/3/6 226/3/6
f 225/1/6 222/1/6 226/1/6
f 223/1/6 224/1/6 227/1/6
f 226/3/6 223/3/6 227/3/6
f 227/1/6 224/1/6 228/1/6
f 225/3/6 226/3/6 229/3/6
f 226/3/6 227/3/6 229/3/6
f 227/3/6 228/3/6 229/3/6
f 229/3/6 228/3/6 230/3/6
f 230/3/6 228/3/6 231/3/6
f 231/3/6 228/3/6 232/3/6
f 229/1/6 230/1/6 233/1/6
f 230/3/6 231/3/6 234/3/6
f 233/1/6 230/1/6 234/1/6
f 234/3/6 231/3/6 235/3/6
f 235/3/6 231/3/6 236/3/6
f 236/3/6 231/3/6 237/3/6
f 237/3/6 231/3/6 238/3/6
f 238/3/6 231/3/6 239/3/6
f 239/3/6 231/3/6 240/3/6
f 240/3/6 231/3/6 241/3/6
f 241/3/6 231/3/6 242/3/6
f 231/1/6 232/1/6 243/1/6
f 242/3/6 231/3/6 243/3/6
f 243/1/6 232/1/6 244/1/6
f 233/2/6 234/2/6 245/2/6
f 234/1/6 235/1/6 246/1/6
f 245/2/6 234/2/6 246/2/6
f 235/3/6 236/3/6 247/3/6
f 246/1/6 235/1/6 247/1/6
f 236/1/6 237/1/6 248/1/6
f 247/3/6 236/3/6 248/3/6
f 237/3/6 238/3/6 249/3/6
f 248/1/6 237/1/6 249/1/6
f 238/1/6 239/1/6 250/1/6
f 249/3/6 238/3/6 250/3/6
f 239/3/6 240/3/6 251/3/6
f 250/1/6 239/1/6 251/1/6
f 240/1/6 241/1/6 252/1/6
f 251/3/6 240/3/6 252/3/6
f 241/3/6 242/3/6 253/3/6
f 252/1/6 241/1/6 253/1/6
f 242/1/6 243/1/6 254/1/6
f 253/3/6 242/3/6 254/3/6
f 243/2/6 244/2/6 255/2/6
f 254/1/6 243/1/6 255/1/6
f 255/2/6 244/2/6 256/2/6
