# MagicaVoxel @ Ephtracy

# group
o 

# material
mtllib body4.mtl
usemtl palette

# normals
vn -1 0 0
vn 1 0 0
vn 0 0 1
vn 0 0 -1
vn 0 -1 0
vn 0 1 0

# texcoords
vt 0.0332031 0.5
vt 0.166016 0.5
vt 0.466797 0.5

# verts
v -0.0999999 0 0.2
v -0.0999999 0 0.0999999
v -0.0999999 0 -0.1
v -0.0999999 0 -0.2
v -0.0999999 0.1 0.2
v -0.0999999 0.1 0.0999999
v -0.0999999 0.1 -0.1
v -0.0999999 0.1 -0.2
v -0.0999999 0.2 0.2
v -0.0999999 0.2 -0.2
v -0.0999999 0.3 0.2
v -0.0999999 0.3 -0.2
v -0.0999999 0.4 0.2
v -0.0999999 0.4 -0.2
v 0.1 0 0.2
v 0.1 0 0.0999999
v 0.1 0 -0.1
v 0.1 0 -0.2
v 0.1 0.1 0.2
v 0.1 0.1 0.0999999
v 0.1 0.1 -0.1
v 0.1 0.1 -0.2
v 0.1 0.2 0.2
v 0.1 0.2 -0.2
v 0.1 0.3 0.2
v 0.1 0.3 -0.2
v 0.1 0.4 0.2
v 0.1 0.4 -0.2
v -0.0999999 0 0.2
v -0.0999999 0.1 0.2
v -0.0999999 0.2 0.2
v -0.0999999 0.3 0.2
v -0.0999999 0.4 0.2
v 0.1 0 0.2
v 0.1 0.1 0.2
v 0.1 0.2 0.2
v 0.1 0.3 0.2
v 0.1 0.4 0.2
v -0.0999999 0 -0.1
v -0.0999999 0.1 -0.1
v 0.1 0 -0.1
v 0.1 0.1 -0.1
v -0.0999999 0 0.0999999
v -0.0999999 0.1 0.0999999
v 0.1 0 0.0999999
v 0.1 0.1 0.0999999
v -0.0999999 0 -0.2
v -0.0999999 0.1 -0.2
v -0.0999999 0.2 -0.2
v -0.0999999 0.3 -0.2
v -0.0999999 0.4 -0.2
v 0.1 0 -0.2
v 0.1 0.1 -0.2
v 0.1 0.2 -0.2
v 0.1 0.3 -0.2
v 0.1 0.4 -0.2
v -0.0999999 0 0.2
v 0.1 0 0.2
v -0.0999999 0 0.0999999
v 0.1 0 0.0999999
v -0.0999999 0 -0.1
v 0.1 0 -0.1
v -0.0999999 0 -0.2
v 0.1 0 -0.2
v -0.0999999 0.1 0.0999999
v 0.1 0.1 0.0999999
v -0.0999999 0.1 -0.1
v 0.1 0.1 -0.1
v -0.0999999 0.4 0.2
v 0.1 0.4 0.2
v -0.0999999 0.4 -0.2
v 0.1 0.4 -0.2

# faces
f 5/1/1 2/1/1 1/1/1
f 6/1/1 2/1/1 5/1/1
f 7/1/1 4/1/1 3/1/1
f 8/1/1 4/1/1 7/1/1
f 9/3/1 6/3/1 5/3/1
f 9/3/1 7/3/1 6/3/1
f 9/3/1 8/3/1 7/3/1
f 10/3/1 8/3/1 9/3/1
f 11/2/1 10/2/1 9/2/1
f 12/2/1 10/2/1 11/2/1
f 13/3/1 12/3/1 11/3/1
f 14/3/1 12/3/1 13/3/1
f 15/1/2 16/1/2 19/1/2
f 19/1/2 16/1/2 20/1/2
f 17/1/2 18/1/2 21/1/2
f 21/1/2 18/1/2 22/1/2
f 19/3/2 20/3/2 23/3/2
f 20/3/2 21/3/2 23/3/2
f 21/3/2 22/3/2 23/3/2
f 23/3/2 22/3/2 24/3/2
f 23/2/2 24/2/2 25/2/2
f 25/2/2 24/2/2 26/2/2
f 25/3/2 26/3/2 27/3/2
f 27/3/2 26/3/2 28/3/2
f 34/1/3 30/1/3 29/1/3
f 35/3/3 31/3/3 30/3/3
f 35/1/3 30/1/3 34/1/3
f 36/2/3 32/2/3 31/2/3
f 36/3/3 31/3/3 35/3/3
f 37/3/3 33/3/3 32/3/3
f 37/2/3 32/2/3 36/2/3
f 38/3/3 33/3/3 37/3/3
f 41/1/3 40/1/3 39/1/3
f 42/1/3 40/1/3 41/1/3
f 43/1/4 44/1/4 45/1/4
f 45/1/4 44/1/4 46/1/4
f 47/1/4 48/1/4 52/1/4
f 48/3/4 49/3/4 53/3/4
f 52/1/4 48/1/4 53/1/4
f 49/2/4 50/2/4 54/2/4
f 53/3/4 49/3/4 54/3/4
f 50/3/4 51/3/4 55/3/4
f 54/2/4 50/2/4 55/2/4
f 55/3/4 51/3/4 56/3/4
f 59/1/5 58/1/5 57/1/5
f 60/1/5 58/1/5 59/1/5
f 63/1/5 62/1/5 61/1/5
f 64/1/5 62/1/5 63/1/5
f 67/3/5 66/3/5 65/3/5
f 68/3/5 66/3/5 67/3/5
f 69/3/6 70/3/6 71/3/6
f 71/3/6 70/3/6 72/3/6
